# xmcd
#
# Track frame offsets:
#	150
#	15910
#	29687
#	47637
#	59500
#	74725
#	89062
#	98672
#	111117
#	123712
#
# Disc length: 1819 seconds
#
# Revision: 6
# Processed by: cddbd v1.5.2PL0 Copyright (c) Steve Scherf et al.
# Submitted via: EasyCDDAExtractor 8.2.3.1
#
DISCID=8e07190a
DTITLE=John Anderson - Blue Skies Again
DYEAR=1987
DGENRE=Country
TTITLE0=Blue Skies Again
TTITLE1=There's Nothing Left For Me To Take For Granted
TTITLE2=Quittin' Time 
TTITLE3=Just For You
TTITLE4=Somewhere Between Ragged And Right
TTITLE5=When Your Yellow Brick Road Turns Blue
TTITLE6=His And Hers
TTITLE7=I Make It Hard To Lose 
TTITLE8=Lying In Her Arms
TTITLE9=It's Hard To Keep This Ship Together
EXTD=
EXTT0=
EXTT1=
EXTT2=
EXTT3=
EXTT4=
EXTT5=
EXTT6=
EXTT7=
EXTT8=
EXTT9=
PLAYORDER=
